<?xml version="1.0" encoding="UTF-8" standalone="no"?>
<svg width="50px" height="50px" viewBox="0 0 50 50" version="1.1" xmlns="http://www.w3.org/2000/svg" xmlns:xlink="http://www.w3.org/1999/xlink">
    <!-- Generator: Sketch 44.1 (41455) - http://www.bohemiancoding.com/sketch -->
    <title>logo</title>
    <desc>Created with Sketch.</desc>
    <defs></defs>
    <g id="Page-1" stroke="none" stroke-width="1" fill="none" fill-rule="evenodd">
        <g id="logo">
            <g>
                <rect id="Artboard1" x="0" y="0" width="49.864" height="49.916"></rect>
                <g id="Group" transform="translate(5.000000, 2.000000)" fill-rule="nonzero" fill="#383838">
                    <path d="M26.34,45.307 C25.404,45.307 24.476,45.234 23.585,45.095 L24.11,45.095 C24.239,44.715 24.053,44.556 23.837,44.556 C23.595,44.556 23.316,44.754 23.399,45.064 C23.367,45.059 23.335,45.053 23.303,45.048 C22.004,44.821 20.806,44.385 19.936,43.619 C19.066,44.385 17.867,44.821 16.568,45.048 C15.638,45.21 14.622,45.299 13.575,45.299 C8.898,45.299 3.614,43.523 2.619,38.593 C2.564,38.316 2.67,38.047 2.901,37.884 C3.024,37.797 3.164,37.752 3.304,37.752 C3.427,37.752 3.55,37.786 3.664,37.854 C4.566,38.394 5.476,38.614 6.323,38.614 C7.114,38.614 7.849,38.422 8.473,38.118 C10.935,36.917 12.2,35.52 15.051,35.52 C15.297,35.52 15.554,35.53 15.826,35.552 C17.318,35.671 18.774,36.279 19.936,37.665 C20.441,37.062 21.001,36.607 21.596,36.275 C21.627,36.49 21.758,36.605 21.942,36.669 C21.993,36.312 22.293,36.202 22.468,35.968 C22.445,35.943 22.422,35.923 22.4,35.906 C22.935,35.71 23.488,35.596 24.046,35.552 C24.318,35.53 24.576,35.52 24.821,35.52 C25.22,35.52 25.588,35.547 25.931,35.598 C25.789,35.77 25.747,36.044 25.687,36.3 C25.788,36.409 25.898,36.455 26.006,36.455 C26.321,36.455 26.612,36.066 26.553,35.718 C28.31,36.146 29.497,37.19 31.399,38.118 C32.023,38.422 32.758,38.614 33.548,38.614 C34.395,38.614 35.306,38.394 36.208,37.854 C36.321,37.786 36.445,37.752 36.568,37.752 C36.708,37.752 36.848,37.797 36.971,37.884 C37.202,38.047 37.308,38.316 37.252,38.593 C36.293,43.344 31.208,45.307 26.34,45.307 L26.34,45.307 Z M31.837,41.72 C31.657,41.72 31.505,41.774 31.475,41.929 L32.001,41.929 C31.988,42.235 32.04,42.475 32.177,42.632 C32.041,42.672 31.831,42.637 31.825,42.808 L32.352,42.808 C32.208,42.311 32.599,42.352 32.527,41.929 C32.454,41.845 32.112,41.72 31.837,41.72 L31.837,41.72 Z M35.836,40.177 C35.884,40.705 35.253,41.45 35.484,41.58 C35.786,41.307 36.59,40.433 35.836,40.177 Z M20.953,39.818 L20.953,41.577 L21.128,41.577 C21.071,41.11 21.761,39.909 20.953,39.818 Z M20.534,39.475 L20.534,41.229 L20.71,41.229 C20.652,40.765 21.344,39.566 20.534,39.475 Z M27.69,39.814 C27.9,39.814 28.022,39.904 28.143,39.993 C28.265,40.083 28.386,40.173 28.596,40.173 C28.619,40.173 28.644,40.172 28.669,40.169 C29.056,39.761 28.634,39.17 28.494,38.762 C28.458,38.756 28.426,38.753 28.395,38.753 C28.263,38.753 28.184,38.807 28.106,38.862 C28.027,38.916 27.948,38.971 27.815,38.971 C27.76,38.971 27.695,38.961 27.617,38.938 L27.617,39.818 C27.642,39.815 27.667,39.814 27.69,39.814 L27.69,39.814 Z M6.174,38.75 C6.012,38.75 5.868,38.849 5.766,39.114 C6.381,39.2 6.389,39.896 6.819,40.17 C6.838,39.838 7.398,40.047 7.344,39.642 C7.148,39.442 6.601,38.75 6.174,38.75 L6.174,38.75 Z M15.421,37.155 C15.572,37.155 15.667,37.211 15.762,37.268 C15.857,37.324 15.952,37.379 16.103,37.379 C16.156,37.379 16.217,37.372 16.287,37.356 C16.295,37.205 16.393,37.147 16.442,37.04 C16.465,37.043 16.488,37.045 16.514,37.045 C16.568,37.045 16.629,37.037 16.699,37.02 C16.709,36.796 16.925,36.778 16.876,36.495 C16.675,36.535 16.511,36.544 16.376,36.544 C16.325,36.544 16.278,36.543 16.234,36.541 C16.19,36.54 16.149,36.539 16.111,36.539 C15.907,36.539 15.783,36.575 15.644,36.845 C15.715,36.828 15.776,36.821 15.83,36.821 C15.927,36.821 16.001,36.844 16.067,36.876 C16.031,36.877 15.998,36.877 15.966,36.877 C15.914,36.877 15.868,36.876 15.823,36.875 C15.78,36.873 15.739,36.872 15.702,36.872 C15.498,36.872 15.374,36.909 15.236,37.18 C15.306,37.163 15.368,37.155 15.421,37.155 L15.421,37.155 Z" id="Shape"></path>
                    <path d="M16.514,37.045 C16.488,37.045 16.465,37.043 16.442,37.04 C16.467,36.987 16.48,36.922 16.463,36.828 C16.31,36.859 16.18,36.872 16.067,36.876 C16.001,36.844 15.927,36.821 15.83,36.821 C15.776,36.821 15.715,36.828 15.644,36.845 C15.783,36.575 15.907,36.539 16.111,36.539 C16.149,36.539 16.19,36.54 16.234,36.541 C16.278,36.543 16.325,36.544 16.376,36.544 C16.511,36.544 16.675,36.535 16.876,36.495 C16.925,36.778 16.709,36.796 16.699,37.02 C16.629,37.037 16.568,37.045 16.514,37.045 L16.514,37.045 Z" id="Shape"></path>
                    <path d="M20.71,41.229 L20.534,41.229 L20.534,39.475 C21.344,39.566 20.652,40.765 20.71,41.229 Z" id="Shape"></path>
                    <path d="M21.942,36.669 C21.758,36.605 21.627,36.49 21.596,36.275 C21.858,36.129 22.127,36.007 22.4,35.906 C22.422,35.923 22.445,35.943 22.468,35.968 C22.293,36.202 21.993,36.312 21.942,36.669 Z" id="Shape"></path>
                    <path d="M35.484,41.58 C35.253,41.45 35.884,40.705 35.836,40.177 C36.59,40.433 35.786,41.307 35.484,41.58 Z" id="Shape"></path>
                    <path d="M24.11,45.095 L23.585,45.095 C23.524,45.085 23.461,45.075 23.399,45.064 C23.316,44.754 23.595,44.556 23.837,44.556 C24.053,44.556 24.239,44.715 24.11,45.095 Z" id="Shape"></path>
                    <path d="M32.352,42.808 L31.825,42.808 C31.831,42.637 32.041,42.672 32.177,42.632 C32.04,42.475 31.988,42.235 32.001,41.929 L31.475,41.929 C31.505,41.774 31.657,41.72 31.837,41.72 C32.112,41.72 32.454,41.845 32.527,41.929 C32.599,42.352 32.208,42.311 32.352,42.808 L32.352,42.808 Z" id="Shape"></path>
                    <path d="M21.128,41.577 L20.953,41.577 L20.953,39.818 C21.761,39.909 21.071,41.11 21.128,41.577 Z" id="Shape"></path>
                    <path d="M28.596,40.173 C28.386,40.173 28.265,40.083 28.143,39.993 C28.022,39.904 27.9,39.814 27.69,39.814 C27.667,39.814 27.642,39.815 27.617,39.818 L27.617,38.938 C27.695,38.961 27.76,38.971 27.815,38.971 C27.948,38.971 28.027,38.916 28.106,38.862 C28.184,38.807 28.263,38.753 28.395,38.753 C28.426,38.753 28.458,38.756 28.494,38.762 C28.634,39.17 29.056,39.761 28.669,40.169 C28.644,40.172 28.619,40.173 28.596,40.173 L28.596,40.173 Z" id="Shape"></path>
                    <path d="M26.006,36.455 C25.898,36.455 25.788,36.409 25.687,36.3 C25.747,36.044 25.789,35.77 25.931,35.598 C26.147,35.629 26.354,35.67 26.553,35.718 C26.612,36.066 26.321,36.455 26.006,36.455 Z" id="Shape"></path>
                    <path d="M16.103,37.379 C15.952,37.379 15.857,37.324 15.762,37.268 C15.667,37.211 15.572,37.155 15.421,37.155 C15.368,37.155 15.306,37.163 15.236,37.18 C15.374,36.909 15.498,36.872 15.702,36.872 C15.739,36.872 15.78,36.873 15.823,36.875 C15.868,36.876 15.914,36.877 15.966,36.877 C15.998,36.877 16.031,36.877 16.067,36.876 C16.104,36.893 16.138,36.913 16.172,36.933 C16.251,36.979 16.331,37.026 16.442,37.04 C16.393,37.147 16.295,37.205 16.287,37.356 C16.217,37.372 16.156,37.379 16.103,37.379 L16.103,37.379 Z" id="Shape"></path>
                    <path d="M16.442,37.04 C16.331,37.026 16.251,36.979 16.172,36.933 C16.138,36.913 16.104,36.893 16.067,36.876 C16.18,36.872 16.31,36.859 16.463,36.828 C16.48,36.922 16.467,36.987 16.442,37.04 Z" id="Shape"></path>
                    <path d="M6.819,40.17 C6.389,39.896 6.381,39.2 5.766,39.114 C5.868,38.849 6.012,38.75 6.174,38.75 C6.601,38.75 7.148,39.442 7.344,39.642 C7.398,40.047 6.838,39.838 6.819,40.17 L6.819,40.17 Z" id="Shape"></path>
                    <path d="M33.918,32.723 L30.859,32.723 C30.998,32.18 31.118,31.691 30.712,31.691 C30.627,31.691 30.519,31.712 30.384,31.759 C30.718,31.96 30.589,32.323 30.492,32.723 L28.829,32.723 C28.815,32.173 28.264,32.158 28.097,31.759 C28.042,31.997 27.847,32.094 27.921,32.461 C28.032,32.415 28.117,32.396 28.183,32.396 C28.366,32.396 28.397,32.548 28.427,32.701 C28.429,32.708 28.43,32.715 28.432,32.723 L26.029,32.723 C25.914,32.562 25.726,32.472 25.458,32.461 C25.353,32.561 25.313,32.644 25.307,32.723 L5.954,32.723 C5.185,32.723 4.555,32.094 4.555,31.325 C4.555,30.556 5.185,29.927 5.954,29.927 L9.822,29.927 C9.942,30.047 10.026,30.204 10.15,30.32 C10.127,30.142 10.158,30.017 10.222,29.927 L33.918,29.927 C34.686,29.927 35.316,30.556 35.316,31.325 C35.316,32.094 34.686,32.723 33.918,32.723 Z M5.575,31.058 C5.366,31.183 5.197,31.348 5.065,31.551 C5.181,31.676 5.43,31.739 5.679,31.739 C5.927,31.739 6.175,31.676 6.292,31.551 C6.294,31.499 6.294,31.45 6.293,31.402 C6.453,31.375 6.594,31.319 6.673,31.234 C6.687,30.928 6.635,30.688 6.498,30.532 C6.104,30.621 5.8,30.8 5.575,31.058 L5.575,31.058 Z" id="Shape"></path>
                    <path d="M6.293,31.402 C6.286,31.166 6.231,30.977 6.117,30.848 C5.913,30.894 5.732,30.964 5.575,31.058 C5.8,30.8 6.104,30.621 6.498,30.532 C6.635,30.688 6.687,30.928 6.673,31.234 C6.594,31.319 6.453,31.375 6.293,31.402 L6.293,31.402 Z" id="Shape"></path>
                    <path d="M30.859,32.723 L30.492,32.723 C30.589,32.323 30.718,31.96 30.384,31.759 C30.519,31.712 30.627,31.691 30.712,31.691 C31.118,31.691 30.998,32.18 30.859,32.723 L30.859,32.723 Z" id="Shape"></path>
                    <path d="M26.029,32.723 L25.307,32.723 C25.313,32.644 25.353,32.561 25.458,32.461 C25.726,32.472 25.914,32.562 26.029,32.723 Z" id="Shape"></path>
                    <path d="M28.829,32.723 L28.432,32.723 C28.43,32.715 28.429,32.708 28.427,32.701 C28.397,32.548 28.366,32.396 28.183,32.396 C28.117,32.396 28.032,32.415 27.921,32.461 C27.847,32.094 28.042,31.997 28.097,31.759 C28.264,32.158 28.815,32.173 28.829,32.723 Z" id="Shape"></path>
                    <path d="M10.15,30.32 C10.026,30.204 9.942,30.047 9.822,29.927 L10.222,29.927 C10.158,30.017 10.127,30.142 10.15,30.32 L10.15,30.32 Z" id="Shape"></path>
                    <path d="M5.679,31.739 C5.43,31.739 5.181,31.676 5.065,31.551 C5.197,31.348 5.366,31.183 5.575,31.058 C5.528,31.113 5.483,31.172 5.443,31.234 C5.56,31.359 5.809,31.421 6.058,31.421 C6.138,31.421 6.218,31.415 6.293,31.402 C6.294,31.45 6.294,31.499 6.292,31.551 C6.175,31.676 5.927,31.739 5.679,31.739 Z" id="Shape"></path>
                    <path d="M6.058,31.421 C5.809,31.421 5.56,31.359 5.443,31.234 C5.483,31.172 5.528,31.113 5.575,31.058 C5.732,30.964 5.913,30.894 6.117,30.848 C6.231,30.977 6.286,31.166 6.293,31.402 C6.218,31.415 6.138,31.421 6.058,31.421 Z" id="Shape"></path>
                    <path d="M33.918,28.528 L5.954,28.528 L5.954,19.85 C4.409,19.413 3.062,18.505 2.077,17.292 C2.115,17.175 2.119,17.026 2.1,16.854 C2.064,16.85 2.031,16.847 1.999,16.847 C1.908,16.847 1.834,16.864 1.775,16.894 C0.885,15.639 0.361,14.105 0.361,12.449 C0.361,11.335 0.598,10.276 1.024,9.32 C1.052,9.321 1.08,9.321 1.107,9.321 C1.5,9.321 1.826,9.255 1.749,8.787 C1.713,8.788 1.675,8.789 1.637,8.789 C1.559,8.789 1.479,8.787 1.398,8.784 C1.362,8.783 1.327,8.781 1.291,8.781 C2.594,6.386 5.133,4.76 8.051,4.76 C8.689,4.76 9.309,4.837 9.901,4.984 C9.977,5.104 10.071,5.206 10.266,5.206 C10.332,5.206 10.409,5.194 10.501,5.168 L10.501,5.159 C10.815,5.264 11.121,5.39 11.415,5.533 C12.882,2.946 15.491,1.094 18.557,0.662 C18.327,0.781 18.143,1.001 18.106,1.246 C18.126,1.247 18.145,1.248 18.163,1.248 C18.673,1.248 18.96,1.028 19.338,0.895 L19.338,0.72 C19.273,0.663 19.202,0.623 19.127,0.598 C19.394,0.577 19.663,0.565 19.936,0.565 C23.589,0.565 26.774,2.566 28.456,5.533 C29.472,5.038 30.614,4.76 31.821,4.76 C36.068,4.76 39.51,8.203 39.51,12.449 C39.51,15.969 37.146,18.937 33.918,19.85 L33.918,20.118 L33.726,20.118 L33.726,19.834 L33.022,19.834 C33.039,20.199 33.199,20.421 33.5,20.503 C33.585,20.656 33.724,20.754 33.918,20.797 L33.918,28.528 Z M29.963,26.969 C29.529,26.969 29.563,27.439 29.371,27.681 C29.656,27.745 29.686,28.065 30.034,28.065 C30.094,28.065 30.165,28.056 30.247,28.033 C30.251,27.619 29.946,27.516 30.072,26.978 C30.033,26.972 29.997,26.969 29.963,26.969 Z M32.391,27.399 C32.393,27.68 32.492,27.928 32.703,28.033 C32.875,27.326 32.915,26.487 33.579,26.274 C33.486,26.247 33.397,26.234 33.314,26.234 C32.954,26.234 32.689,26.47 32.537,26.774 C32.651,26.4 32.828,26.09 33.198,25.972 C33.104,25.945 33.016,25.932 32.932,25.932 C32.024,25.932 31.712,27.426 32.319,27.726 C32.345,27.619 32.368,27.509 32.391,27.399 Z M22.49,26.658 C22.429,26.658 22.364,26.663 22.293,26.673 C22.332,27.005 22.094,27.061 22.116,27.375 C22.232,27.488 22.32,27.526 22.404,27.526 C22.564,27.526 22.709,27.388 22.996,27.375 C23.068,26.897 22.899,26.658 22.49,26.658 L22.49,26.658 Z M24.227,26.148 C24.285,26.556 24.408,26.903 24.755,27.025 C24.775,26.694 25.337,26.903 25.283,26.499 C25.146,26.46 25.079,26.351 25.106,26.148 L24.227,26.148 L24.227,26.148 Z M7.791,24.901 C7.672,24.901 7.581,24.973 7.52,25.219 C7.916,25.511 8.016,26.099 8.704,26.099 C8.719,26.099 8.733,26.099 8.748,26.098 C8.875,25.56 8.445,25.581 8.572,25.043 C8.538,25.047 8.505,25.05 8.473,25.05 C8.331,25.05 8.203,25.012 8.09,24.975 C7.976,24.938 7.876,24.901 7.791,24.901 Z M18.743,25.219 C18.668,25.495 18.191,25.37 18.392,25.923 L18.919,25.923 L18.919,25.622 L19.338,25.622 L19.338,24.92 L19.162,24.92 C19.117,25.088 18.923,25.107 18.823,25.219 L18.743,25.219 L18.743,25.219 Z M23.408,24.043 L23.408,24.339 L24.11,24.339 C24.176,23.892 24.034,23.654 23.685,23.623 C23.62,23.425 23.457,23.326 23.194,23.326 C23.133,23.326 23.067,23.331 22.996,23.342 L22.996,24.043 L23.408,24.043 L23.408,24.043 Z M21.414,22.29 C21.558,22.847 22.168,22.94 22.644,23.166 C22.701,22.929 22.895,22.832 22.821,22.465 C22.647,22.409 22.507,22.391 22.385,22.391 C22.29,22.391 22.206,22.402 22.125,22.412 C22.045,22.423 21.968,22.433 21.888,22.433 C21.751,22.433 21.605,22.403 21.414,22.29 Z M31.293,21.663 C31.249,21.663 31.194,21.674 31.125,21.702 L31.125,22.405 C31.191,22.413 31.254,22.417 31.313,22.417 C31.605,22.417 31.791,22.311 31.825,22.053 C31.755,22.08 31.7,22.091 31.657,22.091 C31.525,22.091 31.501,21.984 31.475,21.877 C31.45,21.77 31.425,21.663 31.293,21.663 L31.293,21.663 Z M18.738,18.595 C18.883,18.595 19.015,18.608 18.986,18.783 C19.333,18.904 18.943,19.761 19.338,19.835 L19.338,18.608 C19.293,18.618 19.254,18.623 19.221,18.623 C19.062,18.623 19.01,18.518 18.958,18.413 C18.905,18.308 18.853,18.203 18.696,18.203 C18.634,18.203 18.557,18.219 18.458,18.256 C18.319,18.575 18.477,18.596 18.657,18.596 C18.67,18.596 18.684,18.595 18.697,18.595 C18.711,18.595 18.725,18.595 18.738,18.595 L18.738,18.595 Z M30.765,19.082 C30.7,19.355 30.759,19.683 30.949,19.767 C30.919,19.267 31.543,19.423 31.3,18.711 C31.246,18.691 31.196,18.682 31.151,18.682 C31.08,18.682 31.019,18.703 30.967,18.74 C30.971,18.66 30.955,18.56 30.911,18.432 C30.858,18.411 30.808,18.402 30.762,18.402 C30.299,18.402 30.218,19.336 30.559,19.484 C30.546,19.268 30.656,19.175 30.765,19.082 L30.765,19.082 Z M6.292,18.887 C6.279,19.193 6.331,19.435 6.468,19.591 C6.786,19.568 7.04,19.48 7.159,19.257 C7.338,19.205 7.477,19.112 7.553,18.958 C7.156,18.859 7.767,18.684 7.377,18.432 C7.353,18.429 7.328,18.428 7.306,18.428 C7.177,18.428 7.094,18.473 7.01,18.518 C6.926,18.563 6.843,18.609 6.714,18.609 C6.701,18.609 6.688,18.608 6.673,18.608 C6.671,18.665 6.671,18.721 6.673,18.773 C6.658,18.781 6.643,18.79 6.627,18.798 C6.545,18.843 6.461,18.889 6.332,18.889 C6.319,18.889 6.306,18.888 6.292,18.887 L6.292,18.887 Z M13.436,17.324 C13.299,17.324 13.17,17.416 13.131,17.656 C13.381,17.698 13.427,17.945 13.658,18.008 C14.036,17.716 13.719,17.324 13.436,17.324 Z M16.82,17.152 C16.585,17.171 16.374,17.415 16.287,17.656 C16.367,17.739 16.442,17.772 16.516,17.772 C16.667,17.772 16.809,17.633 16.951,17.495 C17.17,17.475 17.372,17.176 17.579,17.029 C17.476,16.921 17.367,16.876 17.263,16.876 C17.093,16.876 16.933,16.996 16.82,17.152 L16.82,17.152 Z M3.683,16.328 C3.585,16.685 3.154,16.672 3.508,17.029 C3.553,17.039 3.596,17.044 3.636,17.044 C4.117,17.044 4.155,16.357 3.683,16.328 Z M15.46,15.634 C14.872,15.634 14.284,16.568 14.885,16.952 C15.233,16.598 15.715,16.377 15.937,15.897 C15.797,15.71 15.628,15.634 15.46,15.634 Z M32.075,15.683 C31.84,15.683 31.624,15.977 31.615,16.327 C31.95,16.253 32.372,16.264 32.319,15.801 C32.241,15.719 32.157,15.683 32.075,15.683 Z M5.267,13.872 C5.089,14.455 4.293,14.421 4.388,15.275 C4.525,15.326 4.654,15.349 4.773,15.349 C5.614,15.349 5.968,14.213 5.267,13.872 Z M27.042,14.223 C26.885,14.851 27.307,15.231 27.716,15.231 C27.852,15.231 27.986,15.189 28.097,15.1 C28.186,14.369 27.652,14.258 27.042,14.223 Z M22.374,13.88 C22.436,14.074 22.618,14.149 22.875,14.149 C22.932,14.149 22.993,14.145 23.058,14.138 L23.058,13.434 C23.027,13.433 22.998,13.432 22.969,13.432 C22.849,13.432 22.74,13.444 22.644,13.468 L22.644,13.171 C22.614,13.17 22.584,13.169 22.554,13.169 C22.291,13.169 22.082,13.224 21.942,13.346 C21.9,13.709 22.075,13.857 22.374,13.88 L22.374,13.88 Z M36.367,13.639 C36.364,13.737 36.371,13.846 36.385,13.962 C36.889,13.94 37.218,13.741 37.087,13.083 C37.007,13.068 36.936,13.061 36.872,13.061 C36.826,13.061 36.783,13.064 36.745,13.071 C36.744,12.996 36.734,12.913 36.716,12.82 C36.637,12.805 36.565,12.797 36.501,12.797 C36.037,12.797 35.947,13.17 36.012,13.697 C36.144,13.691 36.264,13.673 36.367,13.639 L36.367,13.639 Z M1.742,12.907 C1.739,12.907 1.736,12.907 1.733,12.907 C1.741,13.149 1.65,13.293 1.557,13.435 C1.69,13.561 1.863,13.616 2.038,13.616 C2.297,13.616 2.559,13.496 2.695,13.303 C2.929,13.222 3.121,13.048 3.156,12.821 C3.064,12.842 2.984,12.851 2.914,12.851 C2.745,12.851 2.628,12.799 2.511,12.748 C2.394,12.696 2.277,12.645 2.108,12.645 C2.106,12.645 2.103,12.645 2.1,12.645 C2.105,12.776 2.08,12.878 2.041,12.967 C1.955,12.933 1.862,12.907 1.742,12.907 L1.742,12.907 Z M16.098,12.011 C15.63,12.011 15.282,12.132 15.411,12.731 C15.505,12.745 15.589,12.752 15.664,12.752 C15.987,12.752 16.157,12.634 16.299,12.515 C16.442,12.397 16.556,12.278 16.767,12.278 C16.871,12.278 16.999,12.307 17.165,12.38 C17.009,11.538 17.299,11.046 16.815,10.796 C16.417,11.112 16.592,11.876 16.463,12.028 C16.338,12.018 16.214,12.011 16.098,12.011 L16.098,12.011 Z M34.926,10.623 C34.629,10.623 34.343,10.882 34.429,11.417 C34.621,11.486 34.728,11.508 34.813,11.508 C34.973,11.508 35.056,11.428 35.484,11.417 C35.544,10.894 35.23,10.623 34.926,10.623 Z M3.605,8.785 C2.751,8.785 2.633,9.519 2.277,10.014 C2.298,10.015 2.32,10.016 2.342,10.016 C3.2,10.016 3.603,9.561 3.683,8.787 C3.657,8.786 3.63,8.785 3.605,8.785 L3.605,8.785 Z M10.676,8.861 C10.753,9.211 11.351,9.572 11.84,9.572 C12.063,9.572 12.264,9.497 12.382,9.309 C12.579,9.276 12.745,9.17 12.831,8.962 C12.681,8.834 12.498,8.763 12.305,8.723 C12.381,8.569 12.489,8.447 12.43,8.158 L11.728,8.158 C11.648,8.452 11.725,8.589 11.853,8.674 C11.545,8.661 11.255,8.675 11.071,8.612 C11.094,8.716 11.165,8.822 11.265,8.919 C11.032,8.914 10.821,8.912 10.676,8.861 L10.676,8.861 Z M2.434,8.158 C2.147,8.6 2.313,8.756 2.525,8.756 C2.842,8.756 3.259,8.411 2.434,8.158 Z M31.08,7.022 C30.727,7.022 30.514,7.162 30.559,7.559 C30.761,7.568 30.797,7.742 31.008,7.742 C31.031,7.742 31.058,7.739 31.087,7.734 C31.143,7.497 31.337,7.399 31.263,7.033 C31.198,7.026 31.137,7.022 31.08,7.022 L31.08,7.022 Z M16.597,6.672 C16.276,6.672 16.016,6.733 15.995,7.033 C16.354,7.085 16.341,7.508 16.699,7.56 C16.847,7.355 16.931,7.088 16.876,6.682 C16.78,6.676 16.686,6.672 16.597,6.672 Z M25.18,5.971 C24.859,5.971 24.6,6.031 24.579,6.332 C24.681,6.441 24.858,6.503 25.027,6.503 C25.289,6.503 25.534,6.351 25.458,5.981 C25.364,5.975 25.27,5.971 25.18,5.971 L25.18,5.971 Z M12.264,5.447 C12.222,5.447 12.177,5.449 12.126,5.455 C11.967,5.803 12.385,6.027 12.743,6.027 C13.004,6.027 13.234,5.908 13.182,5.63 C13.026,5.714 12.926,5.745 12.856,5.745 C12.748,5.745 12.71,5.671 12.644,5.596 C12.578,5.521 12.484,5.447 12.264,5.447 Z M10.638,5.976 C10.695,5.976 10.756,5.98 10.816,5.984 C10.877,5.988 10.938,5.992 10.994,5.992 C11.2,5.992 11.35,5.938 11.247,5.63 C11.047,5.584 10.945,5.438 10.699,5.438 C10.652,5.438 10.601,5.443 10.543,5.455 L10.543,5.981 C10.573,5.977 10.605,5.976 10.638,5.976 Z M23.624,3.715 C23.7,3.873 23.855,3.952 24.088,3.952 C24.149,3.952 24.214,3.947 24.285,3.936 C24.232,3.577 24.184,3.212 23.773,3.212 C23.768,3.212 23.762,3.212 23.756,3.212 C23.687,3.072 23.571,2.978 23.362,2.978 C23.306,2.978 23.243,2.985 23.172,3 C23.105,3.455 23.256,3.694 23.624,3.715 Z" id="Shape"></path>
                    <path d="M18.163,1.248 C18.145,1.248 18.126,1.247 18.106,1.246 C18.143,1.001 18.327,0.781 18.557,0.662 C18.745,0.635 18.936,0.614 19.127,0.598 C19.202,0.623 19.273,0.663 19.338,0.72 L19.338,0.895 C18.96,1.028 18.673,1.248 18.163,1.248 Z" id="Shape"></path>
                    <path d="M19.338,25.622 L18.919,25.622 L18.919,25.219 L18.823,25.219 C18.923,25.107 19.117,25.088 19.162,24.92 L19.338,24.92 L19.338,25.622 L19.338,25.622 Z" id="Shape"></path>
                    <path d="M16.951,17.495 C17.022,17.425 17.093,17.355 17.165,17.304 C17.062,17.195 16.954,17.15 16.85,17.15 C16.84,17.15 16.83,17.151 16.82,17.152 C16.933,16.996 17.093,16.876 17.263,16.876 C17.367,16.876 17.476,16.921 17.579,17.029 C17.372,17.176 17.17,17.475 16.951,17.495 L16.951,17.495 Z" id="Shape"></path>
                    <path d="M16.699,7.56 C16.341,7.508 16.354,7.085 15.995,7.033 C16.016,6.733 16.276,6.672 16.597,6.672 C16.686,6.672 16.78,6.676 16.876,6.682 C16.931,7.088 16.847,7.355 16.699,7.56 Z" id="Shape"></path>
                    <path d="M12.743,6.027 C12.385,6.027 11.967,5.803 12.126,5.455 C12.177,5.449 12.222,5.447 12.264,5.447 C12.484,5.447 12.578,5.521 12.644,5.596 C12.71,5.671 12.748,5.745 12.856,5.745 C12.926,5.745 13.026,5.714 13.182,5.63 C13.234,5.908 13.004,6.027 12.743,6.027 Z" id="Shape"></path>
                    <path d="M12.382,9.309 C12.4,9.28 12.416,9.248 12.43,9.213 C12.118,8.943 11.66,8.927 11.265,8.919 C11.165,8.822 11.094,8.716 11.071,8.612 C11.255,8.675 11.545,8.661 11.853,8.674 C11.97,8.753 12.131,8.788 12.254,8.861 C12.266,8.81 12.284,8.765 12.305,8.723 C12.498,8.763 12.681,8.834 12.831,8.962 C12.745,9.17 12.579,9.276 12.382,9.309 L12.382,9.309 Z" id="Shape"></path>
                    <path d="M10.994,5.992 C10.938,5.992 10.877,5.988 10.816,5.984 C10.756,5.98 10.695,5.976 10.638,5.976 C10.605,5.976 10.573,5.977 10.543,5.981 L10.543,5.455 C10.601,5.443 10.652,5.438 10.699,5.438 C10.945,5.438 11.047,5.584 11.247,5.63 C11.35,5.938 11.2,5.992 10.994,5.992 Z" id="Shape"></path>
                    <path d="M7.159,19.257 C7.163,19.251 7.166,19.245 7.169,19.239 C6.772,19.141 7.382,18.964 6.994,18.711 C6.968,18.708 6.945,18.707 6.923,18.707 C6.817,18.707 6.743,18.738 6.673,18.773 C6.671,18.721 6.671,18.665 6.673,18.608 C6.688,18.608 6.701,18.609 6.714,18.609 C6.843,18.609 6.926,18.563 7.01,18.518 C7.094,18.473 7.177,18.428 7.306,18.428 C7.328,18.428 7.353,18.429 7.377,18.432 C7.767,18.684 7.156,18.859 7.553,18.958 C7.477,19.112 7.338,19.205 7.159,19.257 L7.159,19.257 Z" id="Shape"></path>
                    <path d="M4.773,15.349 C4.654,15.349 4.525,15.326 4.388,15.275 C4.293,14.421 5.089,14.455 5.267,13.872 C5.968,14.213 5.614,15.349 4.773,15.349 L4.773,15.349 Z" id="Shape"></path>
                    <path d="M3.636,17.044 C3.596,17.044 3.553,17.039 3.508,17.029 C3.154,16.672 3.585,16.685 3.683,16.328 C4.155,16.357 4.117,17.044 3.636,17.044 Z" id="Shape"></path>
                    <path d="M2.342,10.016 C2.32,10.016 2.298,10.015 2.277,10.014 C2.633,9.519 2.751,8.785 3.605,8.785 C3.63,8.785 3.657,8.786 3.683,8.787 C3.603,9.561 3.2,10.016 2.342,10.016 L2.342,10.016 Z" id="Shape"></path>
                    <path d="M2.695,13.303 C2.741,13.237 2.773,13.163 2.785,13.083 C2.693,13.105 2.614,13.114 2.544,13.114 C2.376,13.114 2.259,13.062 2.142,13.01 C2.109,12.995 2.076,12.981 2.041,12.967 C2.08,12.878 2.105,12.776 2.1,12.645 C2.103,12.645 2.106,12.645 2.108,12.645 C2.277,12.645 2.394,12.696 2.511,12.748 C2.628,12.799 2.745,12.851 2.914,12.851 C2.984,12.851 3.064,12.842 3.156,12.821 C3.121,13.048 2.929,13.222 2.695,13.303 L2.695,13.303 Z" id="Shape"></path>
                    <path d="M2.077,17.292 C1.972,17.163 1.872,17.03 1.775,16.894 C1.834,16.864 1.908,16.847 1.999,16.847 C2.031,16.847 2.064,16.85 2.1,16.854 C2.119,17.026 2.115,17.175 2.077,17.292 L2.077,17.292 Z" id="Shape"></path>
                    <path d="M1.107,9.321 C1.08,9.321 1.052,9.321 1.024,9.32 C1.106,9.137 1.195,8.956 1.291,8.781 C1.327,8.781 1.362,8.783 1.398,8.784 C1.479,8.787 1.559,8.789 1.637,8.789 C1.675,8.789 1.713,8.788 1.749,8.787 C1.826,9.255 1.5,9.321 1.107,9.321 L1.107,9.321 Z" id="Shape"></path>
                    <path d="M19.338,19.835 C18.943,19.761 19.333,18.904 18.986,18.783 C19.015,18.608 18.883,18.595 18.738,18.595 C18.725,18.595 18.711,18.595 18.697,18.595 C18.684,18.595 18.67,18.596 18.657,18.596 C18.477,18.596 18.319,18.575 18.458,18.256 C18.557,18.219 18.634,18.203 18.696,18.203 C18.853,18.203 18.905,18.308 18.958,18.413 C19.01,18.518 19.062,18.623 19.221,18.623 C19.254,18.623 19.293,18.618 19.338,18.608 L19.338,19.835 L19.338,19.835 Z" id="Shape"></path>
                    <path d="M32.319,27.726 C31.712,27.426 32.024,25.932 32.932,25.932 C33.016,25.932 33.104,25.945 33.198,25.972 C32.828,26.09 32.651,26.4 32.537,26.774 C32.439,26.97 32.388,27.193 32.391,27.399 C32.368,27.509 32.345,27.619 32.319,27.726 L32.319,27.726 Z" id="Shape"></path>
                    <path d="M22.404,27.526 C22.32,27.526 22.232,27.488 22.116,27.375 C22.094,27.061 22.332,27.005 22.293,26.673 C22.364,26.663 22.429,26.658 22.49,26.658 C22.899,26.658 23.068,26.897 22.996,27.375 C22.709,27.388 22.564,27.526 22.404,27.526 Z" id="Shape"></path>
                    <path d="M24.755,27.025 C24.408,26.903 24.285,26.556 24.227,26.148 L25.106,26.148 C25.079,26.351 25.146,26.46 25.283,26.499 C25.337,26.903 24.775,26.694 24.755,27.025 L24.755,27.025 Z" id="Shape"></path>
                    <path d="M23.408,24.043 L22.996,24.043 L22.996,23.342 C23.067,23.331 23.133,23.326 23.194,23.326 C23.457,23.326 23.62,23.425 23.685,23.623 C23.659,23.622 23.633,23.62 23.605,23.62 C23.545,23.62 23.479,23.626 23.408,23.636 L23.408,24.043 L23.408,24.043 Z" id="Shape"></path>
                    <path d="M22.644,23.166 C22.168,22.94 21.558,22.847 21.414,22.29 C21.605,22.403 21.751,22.433 21.888,22.433 C21.968,22.433 22.045,22.423 22.125,22.412 C22.206,22.402 22.29,22.391 22.385,22.391 C22.507,22.391 22.647,22.409 22.821,22.465 C22.895,22.832 22.701,22.929 22.644,23.166 Z" id="Shape"></path>
                    <path d="M33.5,20.503 C33.199,20.421 33.039,20.199 33.022,19.834 L33.726,19.834 L33.726,20.118 L33.403,20.118 C33.411,20.271 33.444,20.399 33.5,20.503 Z" id="Shape"></path>
                    <path d="M30.559,19.484 C30.218,19.336 30.299,18.402 30.762,18.402 C30.808,18.402 30.858,18.411 30.911,18.432 C30.955,18.56 30.971,18.66 30.967,18.74 C30.867,18.811 30.799,18.939 30.765,19.082 C30.656,19.175 30.546,19.268 30.559,19.484 Z" id="Shape"></path>
                    <path d="M31.615,16.327 C31.624,15.977 31.84,15.683 32.075,15.683 C32.157,15.683 32.241,15.719 32.319,15.801 C32.372,16.264 31.95,16.253 31.615,16.327 Z" id="Shape"></path>
                    <path d="M27.716,15.231 C27.307,15.231 26.885,14.851 27.042,14.223 C27.652,14.258 28.186,14.369 28.097,15.1 C27.986,15.189 27.852,15.231 27.716,15.231 Z" id="Shape"></path>
                    <path d="M22.374,13.88 C22.075,13.857 21.9,13.709 21.942,13.346 C22.082,13.224 22.291,13.169 22.554,13.169 C22.584,13.169 22.614,13.17 22.644,13.171 L22.644,13.468 C22.53,13.497 22.433,13.543 22.356,13.61 C22.344,13.718 22.351,13.807 22.374,13.88 Z" id="Shape"></path>
                    <path d="M36.012,13.697 C35.947,13.17 36.037,12.797 36.501,12.797 C36.565,12.797 36.637,12.805 36.716,12.82 C36.734,12.913 36.744,12.996 36.745,13.071 C36.48,13.12 36.377,13.332 36.367,13.639 C36.264,13.673 36.144,13.691 36.012,13.697 L36.012,13.697 Z" id="Shape"></path>
                    <path d="M34.813,11.508 C34.728,11.508 34.621,11.486 34.429,11.417 C34.343,10.882 34.629,10.623 34.926,10.623 C35.23,10.623 35.544,10.894 35.484,11.417 C35.056,11.428 34.973,11.508 34.813,11.508 Z" id="Shape"></path>
                    <path d="M31.008,7.742 C30.797,7.742 30.761,7.568 30.559,7.559 C30.514,7.162 30.727,7.022 31.08,7.022 C31.137,7.022 31.198,7.026 31.263,7.033 C31.337,7.399 31.143,7.497 31.087,7.734 C31.058,7.739 31.031,7.742 31.008,7.742 L31.008,7.742 Z" id="Shape"></path>
                    <path d="M25.027,6.503 C24.858,6.503 24.681,6.441 24.579,6.332 C24.6,6.031 24.859,5.971 25.18,5.971 C25.27,5.971 25.364,5.975 25.458,5.981 C25.534,6.351 25.289,6.503 25.027,6.503 L25.027,6.503 Z" id="Shape"></path>
                    <path d="M23.624,3.715 C23.256,3.694 23.105,3.455 23.172,3 C23.243,2.985 23.306,2.978 23.362,2.978 C23.571,2.978 23.687,3.072 23.756,3.212 C23.705,3.213 23.647,3.22 23.584,3.233 C23.554,3.437 23.567,3.598 23.624,3.715 L23.624,3.715 Z" id="Shape"></path>
                    <path d="M32.703,28.033 C32.492,27.928 32.393,27.68 32.391,27.399 C32.435,27.186 32.477,26.971 32.537,26.774 C32.689,26.47 32.954,26.234 33.314,26.234 C33.397,26.234 33.486,26.247 33.579,26.274 C32.915,26.487 32.875,27.326 32.703,28.033 L32.703,28.033 Z" id="Shape"></path>
                    <path d="M32.391,27.399 C32.388,27.193 32.439,26.97 32.537,26.774 C32.477,26.971 32.435,27.186 32.391,27.399 Z" id="Shape"></path>
                    <path d="M30.034,28.065 C29.686,28.065 29.656,27.745 29.371,27.681 C29.563,27.439 29.529,26.969 29.963,26.969 C29.997,26.969 30.033,26.972 30.072,26.978 C29.946,27.516 30.251,27.619 30.247,28.033 C30.165,28.056 30.094,28.065 30.034,28.065 Z" id="Shape"></path>
                    <path d="M24.11,24.339 L23.408,24.339 L23.408,24.043 L23.7,24.043 C23.725,23.873 23.72,23.733 23.685,23.623 C24.034,23.654 24.176,23.892 24.11,24.339 L24.11,24.339 Z" id="Shape"></path>
                    <path d="M23.7,24.043 L23.408,24.043 L23.408,23.636 C23.479,23.626 23.545,23.62 23.605,23.62 C23.633,23.62 23.659,23.622 23.685,23.623 C23.72,23.733 23.725,23.873 23.7,24.043 L23.7,24.043 Z" id="Shape"></path>
                    <path d="M31.313,22.417 C31.254,22.417 31.191,22.413 31.125,22.405 L31.125,21.702 C31.194,21.674 31.249,21.663 31.293,21.663 C31.425,21.663 31.45,21.77 31.475,21.877 C31.501,21.984 31.525,22.091 31.657,22.091 C31.7,22.091 31.755,22.08 31.825,22.053 C31.791,22.311 31.605,22.417 31.313,22.417 L31.313,22.417 Z" id="Shape"></path>
                    <path d="M33.918,20.797 C33.724,20.754 33.585,20.656 33.5,20.503 C33.568,20.521 33.643,20.532 33.726,20.536 L33.726,20.118 L33.918,20.118 L33.918,20.797 Z" id="Shape"></path>
                    <path d="M33.726,20.536 C33.643,20.532 33.568,20.521 33.5,20.503 C33.444,20.399 33.411,20.271 33.403,20.118 L33.726,20.118 L33.726,20.536 L33.726,20.536 Z" id="Shape"></path>
                    <path d="M30.949,19.767 C30.759,19.683 30.7,19.355 30.765,19.082 C30.863,18.998 30.959,18.913 30.967,18.74 C31.019,18.703 31.08,18.682 31.151,18.682 C31.196,18.682 31.246,18.691 31.3,18.711 C31.543,19.423 30.919,19.267 30.949,19.767 L30.949,19.767 Z" id="Shape"></path>
                    <path d="M30.765,19.082 C30.799,18.939 30.867,18.811 30.967,18.74 C30.959,18.913 30.863,18.998 30.765,19.082 Z" id="Shape"></path>
                    <path d="M22.875,14.149 C22.618,14.149 22.436,14.074 22.374,13.88 C22.401,13.882 22.43,13.883 22.46,13.883 C22.518,13.883 22.579,13.879 22.644,13.872 L22.644,13.468 C22.74,13.444 22.849,13.432 22.969,13.432 C22.998,13.432 23.027,13.433 23.058,13.434 L23.058,14.138 C22.993,14.145 22.932,14.149 22.875,14.149 L22.875,14.149 Z" id="Shape"></path>
                    <path d="M22.46,13.883 C22.43,13.883 22.401,13.882 22.374,13.88 C22.351,13.807 22.344,13.718 22.356,13.61 C22.433,13.543 22.53,13.497 22.644,13.468 L22.644,13.872 C22.579,13.879 22.518,13.883 22.46,13.883 Z" id="Shape"></path>
                    <path d="M36.385,13.962 C36.371,13.846 36.364,13.737 36.367,13.639 C36.603,13.559 36.749,13.39 36.745,13.071 C36.783,13.064 36.826,13.061 36.872,13.061 C36.936,13.061 37.007,13.068 37.087,13.083 C37.218,13.741 36.889,13.94 36.385,13.962 L36.385,13.962 Z" id="Shape"></path>
                    <path d="M36.367,13.639 C36.377,13.332 36.48,13.12 36.745,13.071 C36.749,13.39 36.603,13.559 36.367,13.639 Z" id="Shape"></path>
                    <path d="M24.088,3.952 C23.855,3.952 23.7,3.873 23.624,3.715 C23.642,3.716 23.659,3.717 23.679,3.717 C23.739,3.717 23.805,3.711 23.876,3.701 C23.85,3.525 23.824,3.347 23.756,3.212 C23.762,3.212 23.768,3.212 23.773,3.212 C24.184,3.212 24.232,3.577 24.285,3.936 C24.214,3.947 24.149,3.952 24.088,3.952 Z" id="Shape"></path>
                    <path d="M23.679,3.717 C23.659,3.717 23.642,3.716 23.624,3.715 C23.567,3.598 23.554,3.437 23.584,3.233 C23.647,3.22 23.705,3.213 23.756,3.212 C23.824,3.347 23.85,3.525 23.876,3.701 C23.805,3.711 23.739,3.717 23.679,3.717 L23.679,3.717 Z" id="Shape"></path>
                    <path d="M18.919,25.923 L18.392,25.923 C18.191,25.37 18.668,25.495 18.743,25.219 L18.823,25.219 C18.757,25.292 18.731,25.404 18.81,25.622 L18.919,25.622 L18.919,25.923 L18.919,25.923 Z" id="Shape"></path>
                    <path d="M18.919,25.622 L18.81,25.622 C18.731,25.404 18.757,25.292 18.823,25.219 L18.919,25.219 L18.919,25.622 Z" id="Shape"></path>
                    <path d="M15.664,12.752 C15.589,12.752 15.505,12.745 15.411,12.731 C15.282,12.132 15.63,12.011 16.098,12.011 C16.214,12.011 16.338,12.018 16.463,12.028 C16.592,11.876 16.417,11.112 16.815,10.796 C17.299,11.046 17.009,11.538 17.165,12.38 C16.999,12.307 16.871,12.278 16.767,12.278 C16.556,12.278 16.442,12.397 16.299,12.515 C16.157,12.634 15.987,12.752 15.664,12.752 L15.664,12.752 Z" id="Shape"></path>
                    <path d="M16.516,17.772 C16.442,17.772 16.367,17.739 16.287,17.656 C16.374,17.415 16.585,17.171 16.82,17.152 C16.769,17.223 16.728,17.301 16.699,17.38 C16.779,17.463 16.854,17.496 16.928,17.496 C16.936,17.496 16.943,17.495 16.951,17.495 C16.809,17.633 16.667,17.772 16.516,17.772 L16.516,17.772 Z" id="Shape"></path>
                    <path d="M16.928,17.496 C16.854,17.496 16.779,17.463 16.699,17.38 C16.728,17.301 16.769,17.223 16.82,17.152 C16.83,17.151 16.84,17.15 16.85,17.15 C16.954,17.15 17.062,17.195 17.165,17.304 C17.093,17.355 17.022,17.425 16.951,17.495 C16.943,17.495 16.936,17.496 16.928,17.496 L16.928,17.496 Z" id="Shape"></path>
                    <path d="M14.885,16.952 C14.284,16.568 14.872,15.634 15.46,15.634 C15.628,15.634 15.797,15.71 15.937,15.897 C15.715,16.377 15.233,16.598 14.885,16.952 Z" id="Shape"></path>
                    <path d="M13.658,18.008 C13.427,17.945 13.381,17.698 13.131,17.656 C13.17,17.416 13.299,17.324 13.436,17.324 C13.719,17.324 14.036,17.716 13.658,18.008 Z" id="Shape"></path>
                    <path d="M12.305,8.723 C12.157,8.693 12.003,8.68 11.853,8.674 C11.725,8.589 11.648,8.452 11.728,8.158 L12.43,8.158 C12.489,8.447 12.381,8.569 12.305,8.723 Z" id="Shape"></path>
                    <path d="M12.254,8.861 C12.131,8.788 11.97,8.753 11.853,8.674 C12.003,8.68 12.157,8.693 12.305,8.723 C12.284,8.765 12.266,8.81 12.254,8.861 L12.254,8.861 Z" id="Shape"></path>
                    <path d="M11.84,9.572 C11.351,9.572 10.753,9.211 10.676,8.861 C10.821,8.912 11.032,8.914 11.265,8.919 C11.499,9.144 11.895,9.32 12.238,9.32 C12.287,9.32 12.335,9.316 12.382,9.309 C12.264,9.497 12.063,9.572 11.84,9.572 L11.84,9.572 Z" id="Shape"></path>
                    <path d="M12.238,9.32 C11.895,9.32 11.499,9.144 11.265,8.919 C11.66,8.927 12.118,8.943 12.43,9.213 C12.416,9.248 12.4,9.28 12.382,9.309 C12.335,9.316 12.287,9.32 12.238,9.32 L12.238,9.32 Z" id="Shape"></path>
                    <path d="M8.704,26.099 C8.016,26.099 7.916,25.511 7.52,25.219 C7.581,24.973 7.672,24.901 7.791,24.901 C7.876,24.901 7.976,24.938 8.09,24.975 C8.203,25.012 8.331,25.05 8.473,25.05 C8.505,25.05 8.538,25.047 8.572,25.043 C8.445,25.581 8.875,25.56 8.748,26.098 C8.733,26.099 8.719,26.099 8.704,26.099 L8.704,26.099 Z" id="Shape"></path>
                    <path d="M6.468,19.591 C6.331,19.435 6.279,19.193 6.292,18.887 C6.306,18.888 6.319,18.889 6.332,18.889 C6.461,18.889 6.545,18.843 6.627,18.798 C6.643,18.79 6.658,18.781 6.673,18.773 C6.683,19.001 6.739,19.182 6.85,19.309 C6.962,19.301 7.066,19.284 7.159,19.257 C7.04,19.48 6.786,19.568 6.468,19.591 L6.468,19.591 Z" id="Shape"></path>
                    <path d="M6.85,19.309 C6.739,19.182 6.683,19.001 6.673,18.773 C6.743,18.738 6.817,18.707 6.923,18.707 C6.945,18.707 6.968,18.708 6.994,18.711 C7.382,18.964 6.772,19.141 7.169,19.239 C7.166,19.245 7.163,19.251 7.159,19.257 C7.066,19.284 6.962,19.301 6.85,19.309 L6.85,19.309 Z" id="Shape"></path>
                    <path d="M2.525,8.756 C2.313,8.756 2.147,8.6 2.434,8.158 C3.259,8.411 2.842,8.756 2.525,8.756 Z" id="Shape"></path>
                    <path d="M2.038,13.616 C1.863,13.616 1.69,13.561 1.557,13.435 C1.65,13.293 1.741,13.149 1.733,12.907 C1.736,12.907 1.739,12.907 1.742,12.907 C1.862,12.907 1.955,12.933 2.041,12.967 C2.009,13.042 1.967,13.107 1.925,13.171 C2.058,13.296 2.232,13.351 2.408,13.351 C2.505,13.351 2.603,13.334 2.695,13.303 C2.559,13.496 2.297,13.616 2.038,13.616 L2.038,13.616 Z" id="Shape"></path>
                    <path d="M2.408,13.351 C2.232,13.351 2.058,13.296 1.925,13.171 C1.967,13.107 2.009,13.042 2.041,12.967 C2.076,12.981 2.109,12.995 2.142,13.01 C2.259,13.062 2.376,13.114 2.544,13.114 C2.614,13.114 2.693,13.105 2.785,13.083 C2.773,13.163 2.741,13.237 2.695,13.303 C2.603,13.334 2.505,13.351 2.408,13.351 L2.408,13.351 Z" id="Shape"></path>
                    <path d="M10.266,5.206 C10.071,5.206 9.977,5.104 9.901,4.984 C10.104,5.034 10.304,5.093 10.501,5.159 L10.501,5.168 C10.409,5.194 10.332,5.206 10.266,5.206 Z" id="Shape"></path>
                </g>
            </g>
        </g>
    </g>
</svg>